<?xml version="1.0" encoding="UTF-8"?><svg id="Layer_1" xmlns="http://www.w3.org/2000/svg" viewBox="0 0 40.51 40.45"><defs><style>.cls-1{fill:#fff;}</style></defs><path d="M9.71,.27c.6,0,1.2,0,1.81,0,.03,0,.06,.01,.08,.01,.7,.03,1.4,.06,2.1,.09,.98,.05,1.96,.11,2.94,.17,.69,.04,1.38,.09,2.07,.16,.85,.09,1.69,.15,2.55,.16,.76,0,1.52,0,2.28,0,.08,0,.16,0,.24-.01,.47-.06,.94-.13,1.41-.19,.4-.05,.81-.11,1.21-.12,.68-.02,1.36,0,2.04,0,.72,0,1.43,.01,2.15,.02,.75,0,1.5,.02,2.25,.03,.59,0,1.18,.01,1.77,.02,.75,0,1.49,.01,2.24,.02,.91,0,1.81,0,2.72,.01,.13,0,.25,0,.38,0,0,.22,.02,.43,.03,.64,.05,1.15,.1,2.3,.15,3.45,.05,1.26,.11,2.53,.15,3.79,.03,.91,.04,1.82,.05,2.74,.01,.73,.02,1.47,.03,2.2,0,.74,.01,1.47,.02,2.21,0,.76,.01,1.51,.02,2.27,0,.77,.01,1.53,.02,2.3,0,.79,.01,1.58,.02,2.37,0,.82,.01,1.65,.02,2.47,0,.86,.01,1.72,.02,2.58,0,1.11,.01,2.22,.02,3.33,0,.5,0,1.01,0,1.51,0,.03,0,.06,.01,.08v1.49s-.01,.06-.01,.09c-.01,.49-.02,.98-.04,1.47-.03,.51-.06,1.03-.12,1.53-.08,.61-.19,1.21-.29,1.82-.03,.23-.08,.45-.19,.67l-.11-.24c-.16,.17-.36,.2-.58,.18-.22-.02-.44-.03-.66,.02-.33,.07-.67,.13-1.01,.15-.62,.05-1.25,.07-1.87,.09-.98,.03-1.97,.04-2.95,.06-.64,.01-1.28,.03-1.92,.04-1.11,.02-2.21,.04-3.32,.07-.61,.01-1.22,.02-1.83,.03-.83,.02-1.66,.03-2.48,.05-.74,.01-1.49,.03-2.23,.04-.79,.01-1.58,.03-2.37,.02-1.57-.01-3.14-.03-4.7-.05-.47,0-.94-.02-1.41-.03-.95-.03-1.9-.05-2.85-.09-.5-.02-.99-.04-1.49-.08-.48-.04-.96-.11-1.45-.13-1.04-.04-2.09-.06-3.13-.08-.72-.02-1.44-.03-2.16-.04-.13,0-.26-.01-.39-.02,0-.03-.01-.04-.01-.05-.05-.56-.13-1.13-.16-1.69-.05-.97-.08-1.94-.1-2.91-.01-.88,0-1.77,.01-2.65,.02-1.11,.05-2.23,.08-3.34,.03-1.04,.07-2.08,.09-3.12,.02-.86,.03-1.71,.04-2.57,.01-.77,.02-1.53,.02-2.3,0-.92,0-1.84-.02-2.76-.02-.66-.06-1.32-.12-1.98-.09-.96-.22-1.92-.31-2.89-.11-1.24-.16-2.49-.16-3.73,0-1.3,.04-2.59,.06-3.89,0-.64,0-1.29,.02-1.93,.03-.94,.07-1.89,.1-2.83,0-.19,.02-.38,.04-.58,.03,0,.05,0,.07,0,.33,.04,.67,.11,1,.12,.41,.02,.82,.01,1.24,0,.68-.02,1.35-.04,2.03-.07,1.51-.07,3.01-.14,4.52-.21,.1,0,.2-.01,.3-.02Zm6.39,19.6l-.04,.02s-.04-.04-.05-.07c-.01-.06-.01-.12-.03-.17,0-.03-.04-.05-.06-.08-.01,.03-.04,.06-.04,.08,0,.34,0,.69,.02,1.03,.02,.38,.04,.76,.07,1.14,.02,.28,.14,.38,.38,.3,.47-.15,.93-.31,1.39-.47,.18-.06,.24-.18,.22-.37-.02-.2-.04-.41-.04-.62,0-.51,0-1.03,0-1.54,0-1.28,0-2.57,0-3.85,0-.76-.01-1.52-.03-2.28-.02-.69-.04-1.37-.07-2.06-.01-.31-.02-.63-.05-.94-.02-.24-.13-.43-.37-.5-.27-.09-.54-.02-.82,.02,.11,.58-.17,1.06-.36,1.56h-.03v-.33h-.03s-.03,.05-.04,.08c-.04,.14-.08,.29-.12,.44-.06,.21-.11,.42-.16,.63,0,.02,0,.04,.01,.07,.02-.01,.04-.03,.05-.04,.03-.05,.05-.09,.07-.14,0,0,.01-.01,.02-.03l.06,.04c-.11,.21-.24,.39-.29,.63-.06,.29-.16,.58-.24,.87-.03,.11-.07,.23-.1,.34-.07,0-.1-.03-.1-.09,0-.14,0-.28,0-.42,0-.06-.02-.09-.09-.09-.1,.38-.23,.76-.46,1.14-.02-.06-.03-.09-.03-.12,.01-.11,.03-.23,.05-.34,.02-.13,.03-.27,.05-.4-.09-.07-.14-.03-.18,.05-.09,.18-.2,.36-.3,.54-.12,.22-.24,.44-.38,.68-.08-.34-.16-.66-.24-.98-.2-.86-.39-1.72-.67-2.56-.13-.39-.29-.76-.45-1.14-.05-.12-.12-.24-.25-.27-.19-.05-.38-.08-.58-.12,.06,.12,.13,.21,.18,.31,.06,.11,.02,.22-.07,.31-.02-.05-.03-.1-.05-.15,0-.02-.03-.03-.05-.05-.01,.02-.03,.04-.03,.06,0,.09,0,.17,0,.26-.05-.08-.09-.17-.12-.26-.09-.28-.22-.54-.4-.77-.14-.18-.32-.31-.55-.37-.16-.04-.29,0-.37,.15-.04,.09-.08,.18-.09,.28-.05,.39-.1,.78-.15,1.18-.07,.58-.14,1.17-.21,1.75-.07,.58-.13,1.16-.18,1.74-.06,.59-.12,1.18-.15,1.78-.03,.73-.05,1.47-.05,2.21,0,.8,.01,1.6,.02,2.39,0,.38,.01,.76,.02,1.14,0,.28,.12,.36,.39,.3,.06-.01,.11-.03,.17-.05,.1-.02,.19-.05,.29-.06,.29-.03,.41-.15,.4-.44,0-.19-.03-.38-.03-.57,0-.49,0-.98,0-1.47,0-.03,0-.07,0-.1h.03l.11,2.43c.06,0,.11,0,.16,0,.28,0,.39-.12,.4-.4,.01-.72,.02-1.45,.04-2.17,0-.45,.03-.9,.04-1.34,.04-.92,.08-1.83,.11-2.75,.02-.44,.03-.88,.05-1.31,0-.11,.03-.22,.04-.32h.04c.03,.21,.07,.43,.09,.64,.03,.51,.09,1.02,.19,1.53,.16,.81,.41,1.59,.68,2.36,.07,.21,.21,.31,.44,.29,.49-.04,.97-.07,1.46-.11,.3-.02,.45-.14,.54-.43,.17-.53,.34-1.06,.51-1.58,.03-.08,.07-.16,.11-.24h.02l.25,4.19Zm6.49-4.54c.03,.21,.07,.42,.08,.63,0,.74,.04,1.48,.11,2.21,.05,.58,.11,1.15,.2,1.72,.1,.64,.33,1.24,.7,1.78,.19,.29,.45,.47,.81,.49,.16,0,.32-.02,.48-.03,.3-.02,.61-.04,.91-.08,.43-.07,.84-.21,1.18-.51,.34-.3,.64-.63,.87-1.02,.44-.71,.66-1.5,.81-2.32,.04-.22-.04-.3-.26-.28-.24,.02-.48,.04-.71,.05-.27,.02-.46,.16-.54,.42-.01,.04-.02,.08-.03,.12h-.01l-.06-.26c-.08,.2-.15,.38-.22,.55-.2,.5-.4,.99-.7,1.45-.17,.26-.37,.51-.61,.73-.03-.08-.05-.14-.07-.21-.13-.41-.28-.82-.38-1.25-.2-.89-.34-1.78-.42-2.69-.05-.65-.1-1.31-.11-1.97,0-.67,.02-1.34,.06-2.01,.02-.44,.08-.88,.14-1.31,.09-.62,.31-1.19,.55-1.76,.03-.08,.09-.09,.14-.02,.06,.08,.12,.17,.15,.26,.15,.47,.47,.76,.95,.87,.13,.03,.27,.03,.41,.05,.22,.03,.44,.07,.66,.11,.09,.01,.15-.08,.12-.15-.17-.38-.35-.75-.53-1.13-.2-.42-.53-.69-.97-.83-.51-.15-1.02-.3-1.53-.44-.31-.09-.62-.08-.89,.11-.32,.23-.57,.53-.71,.91-.15,.42-.27,.84-.39,1.26-.18,.66-.33,1.33-.3,2.03,.01,.27,.05,.55,.08,.82h.04l.13-.36h.02l.28,3.82c-.07,.03-.09,0-.09-.05-.04-.4-.08-.79-.12-1.19-.02-.18-.04-.37-.06-.56l-.14,.03Zm-14.11,13.07h.04c0,.05,.01,.11,.01,.16,0,.89,0,1.79,0,2.68,0,.12,0,.24,0,.36,0,.12,.08,.19,.2,.19,.27,0,.55,0,.82,0,.11,0,.17-.05,.19-.16,0-.04,.01-.08,.01-.13,0-.33,0-.65,0-.98,0-1.58,0-3.17,0-4.75,0-.04,0-.07,0-.11-.02-.18-.08-.23-.27-.23-.3,0-.61,0-.91,0-.22,0-.29,.05-.36,.26-.32,.99-.65,1.99-.97,2.98-.07,.21-.15,.43-.23,.66-.02-.06-.03-.09-.04-.12-.34-1.13-.68-2.27-1.02-3.4-.03-.09-.08-.18-.14-.26-.04-.05-.12-.09-.19-.1-.39-.01-.77-.01-1.16-.02-.02,0-.05,0-.07,0v6.35c.3,0,.59,0,.88,0,.24,0,.32-.08,.32-.32,0-.35-.01-.69-.01-1.04,0-.61,0-1.23,0-1.84,0-.07,0-.14,0-.2,.03,.02,.04,.04,.04,.07,.23,.8,.46,1.61,.69,2.41,.07,.23,.13,.46,.2,.69,.04,.14,.14,.23,.29,.24,.13,0,.25,.01,.38,.01,.21,0,.29-.06,.35-.26,.25-.87,.51-1.73,.76-2.6,.05-.18,.11-.35,.16-.53Zm10.14,3.38s0-.03,0-.05c0-1.98,.01-3.96,.02-5.95,0-.23-.11-.34-.34-.35-.25,0-.5,0-.75,0-.14,0-.21,.07-.22,.21,0,.09,0,.18,0,.26,0,.77,0,1.54,0,2.31,0,.04-.02,.09-.03,.13-.03-.03-.07-.06-.09-.1-.3-.68-.6-1.37-.9-2.05-.09-.2-.18-.39-.27-.59-.05-.1-.13-.16-.26-.16-.25,0-.5,0-.76,0-.09,0-.19,0-.29,0v.11c0,1.87,0,3.74,0,5.61,0,.1,0,.2,.02,.3,.02,.19,.11,.29,.3,.31,.25,.02,.5,.02,.74,.01,.12,0,.19-.08,.19-.21,0-.14,0-.28,0-.42,0-.7,0-1.4,0-2.1,0-.12,.01-.23,.02-.37,.03,.05,.04,.07,.05,.1,.34,.75,.67,1.51,1.01,2.26,.08,.18,.16,.36,.24,.53,.04,.08,.08,.19,.19,.19,.37,0,.73,0,1.11,0Zm3.21-4.07h0c0-.13,0-.26,0-.39,0-.54,0-1.08,0-1.62,0-.19-.08-.26-.26-.26-.26,0-.52,0-.77,0-.2,0-.27,.08-.27,.27,0,.76,0,1.52,.02,2.28,0,.76,.02,1.52,.04,2.28,.01,.52,.22,.94,.66,1.24,.25,.17,.54,.28,.84,.34,.44,.08,.88,.06,1.32,0,.38-.06,.73-.19,1.01-.47,.36-.35,.49-.81,.5-1.29,.01-.76,.01-1.52,.01-2.29,0-.62,0-1.24,0-1.85,0-.09,0-.18,0-.27-.02-.16-.08-.22-.24-.22-.25,0-.51,0-.76,0-.18,0-.25,.06-.27,.24,0,.04,0,.08,0,.12,0,1.17,0,2.34,0,3.5,0,.2-.01,.41-.04,.6-.05,.31-.21,.56-.54,.63-.18,.04-.37,.05-.55,.02-.34-.05-.56-.26-.63-.6-.03-.11-.04-.23-.04-.35,0-.63,0-1.26,0-1.89Zm14.69,1.46c-.33,0-.64,0-.96,0-.21,0-.26,.07-.29,.3-.01,.12-.02,.25-.04,.37-.04,.35-.26,.63-.59,.69-.18,.04-.37,.04-.55,.01-.34-.04-.58-.27-.59-.65,0-.36-.03-.72-.03-1.09,0-.5,0-.99,.02-1.49,0-.31,.2-.54,.5-.62,.23-.07,.47-.06,.71,0,.29,.07,.47,.25,.53,.54,.02,.08,.03,.15,.04,.23,.02,.12,.07,.19,.18,.19,.29,0,.59,0,.88-.01,.14,0,.21-.09,.24-.23,.04-.25,.02-.49-.06-.73-.19-.58-.54-1.01-1.15-1.2-.72-.22-1.43-.18-2.14,.05-.56,.18-.92,.58-.99,1.18-.04,.37-.05,.75-.05,1.12,0,.8,.02,1.61,.03,2.41,.01,.67,.36,1.18,1,1.42,.74,.28,1.5,.27,2.25,.04,.48-.15,.8-.46,.96-.94,.18-.52,.17-1.06,.12-1.61Zm-8.98,.55c-.27,.22-.56,.44-.83,.67-.13,.11-.15,.25-.07,.41,.15,.28,.36,.51,.61,.69,.56,.4,1.19,.45,1.84,.35,.61-.09,1.04-.45,1.33-.98,.47-.85,.28-1.81-.48-2.41-.28-.23-.6-.39-.92-.54-.3-.14-.59-.29-.89-.43-.12-.06-.2-.16-.25-.29-.08-.2,.05-.44,.27-.47,.22-.03,.44-.01,.66,.05,.25,.07,.4,.26,.57,.43,.06,.06,.1,.12,.15,.18,.28-.19,.54-.35,.79-.52,.11-.08,.14-.18,.08-.31-.25-.51-.61-.91-1.17-1.08-.83-.25-1.58-.06-2.23,.49-.33,.28-.51,.65-.54,1.09-.04,.59,.2,1.06,.66,1.41,.25,.19,.54,.34,.82,.5,.35,.2,.71,.37,1.06,.57,.21,.12,.29,.32,.25,.56-.04,.24-.18,.4-.42,.46-.37,.09-.7-.01-.94-.31-.13-.16-.23-.34-.35-.51Zm-15.99-1.13h0c0,.97,0,1.94,0,2.9,0,.04,0,.08,0,.12,.01,.12,.07,.18,.19,.18,.29,0,.59,0,.88,0,.12,0,.18-.06,.19-.18,0-.04,0-.08,0-.13,0-1.18,0-2.36,0-3.54,0-.75,0-1.5,0-2.25,0-.21-.05-.26-.26-.26-.28,0-.56,0-.84,0-.12,0-.15,.02-.16,.15,0,.03,0,.06,0,.09,0,.97,0,1.94,0,2.91Zm8.83-7.37c.16-.01,.27-.02,.38-.03,.32-.04,.48-.19,.53-.52,.02-.16,.03-.33,.02-.49-.03-.33-.18-.6-.51-.72-.33-.13-.63-.04-.88,.19-.32,.29-.42,.66-.37,1.08,.02,.23,.16,.38,.39,.42,.16,.03,.32,.05,.43,.06Zm10.19,0c.14-.01,.24-.02,.34-.03,.31-.04,.52-.2,.57-.49,.04-.19,.05-.39,.03-.57-.08-.53-.67-1-1.31-.54-.37,.27-.5,.66-.46,1.1,.02,.24,.16,.41,.4,.46,.16,.03,.32,.05,.43,.07Z"/><path class="cls-1" d="M16.1,19.88l-.25-4.18h-.02c-.04,.07-.08,.15-.11,.24-.17,.53-.34,1.06-.51,1.58-.09,.29-.25,.41-.54,.43-.49,.04-.97,.07-1.46,.11-.23,.02-.37-.08-.44-.29-.27-.77-.52-1.55-.68-2.36-.1-.5-.16-1.01-.19-1.53-.01-.21-.06-.43-.09-.64h-.04c-.01,.11-.03,.21-.04,.32-.02,.44-.03,.88-.05,1.31-.04,.92-.08,1.83-.11,2.75-.02,.45-.03,.9-.04,1.34-.02,.72-.03,1.45-.04,2.17,0,.28-.12,.4-.4,.4-.05,0-.1,0-.16,0l-.11-2.43h-.03s0,.07,0,.1c0,.49,0,.98,0,1.47,0,.19,.03,.38,.03,.57,0,.29-.11,.41-.4,.44-.1,0-.19,.04-.29,.06-.06,.01-.11,.03-.17,.05-.27,.06-.38-.02-.39-.3,0-.38-.02-.76-.02-1.14-.01-.8-.03-1.6-.02-2.39,0-.74,.02-1.47,.05-2.21,.03-.59,.09-1.19,.15-1.78,.05-.58,.12-1.16,.18-1.74,.07-.58,.14-1.17,.21-1.75,.05-.39,.09-.79,.15-1.18,.01-.09,.05-.19,.09-.28,.07-.14,.21-.2,.37-.15,.23,.06,.41,.19,.55,.37,.18,.23,.31,.49,.4,.77,.03,.09,.06,.17,.12,.26,0-.09,0-.17,0-.26,0-.02,.02-.04,.03-.06,.02,.02,.04,.03,.05,.05,.02,.05,.03,.1,.05,.15,.1-.09,.13-.2,.07-.31-.05-.1-.12-.19-.18-.31,.19,.04,.39,.06,.58,.12,.13,.04,.2,.15,.25,.27,.15,.38,.31,.75,.45,1.14,.29,.83,.47,1.7,.67,2.56,.07,.32,.15,.63,.24,.98,.13-.24,.26-.46,.38-.68,.1-.18,.2-.36,.3-.54,.04-.08,.08-.11,.18-.05-.02,.13-.03,.26-.05,.4-.02,.11-.04,.23-.05,.34,0,.03,.01,.06,.03,.12,.23-.38,.36-.76,.46-1.14,.08,0,.1,.02,.09,.09,0,.14,0,.28,0,.42,0,.06,.02,.09,.1,.09,.03-.11,.07-.22,.1-.34,.08-.29,.18-.58,.24-.87,.05-.23,.18-.42,.29-.63l-.06-.04s-.02,.02-.02,.03c-.02,.05-.04,.1-.07,.14-.01,.02-.03,.03-.05,.04,0-.02-.02-.05-.01-.07,.05-.21,.11-.42,.16-.63,.04-.15,.08-.29,.12-.44,0-.03,.03-.06,.04-.08h.03v.33h.03c.19-.49,.48-.97,.36-1.55,.28-.04,.55-.11,.82-.02,.24,.08,.35,.27,.37,.5,.03,.31,.04,.63,.05,.94,.03,.69,.06,1.37,.07,2.06,.02,.76,.02,1.52,.03,2.28,0,1.28,0,2.57,0,3.85,0,.51,0,1.03,0,1.54,0,.21,.02,.41,.04,.62,.02,.19-.04,.31-.22,.37-.46,.16-.93,.32-1.39,.47-.24,.08-.36-.02-.38-.3-.02-.38-.05-.76-.07-1.14-.01-.34-.02-.69-.02-1.03,0-.03,.02-.06,.04-.08,.02,.03,.05,.05,.06,.08,.02,.06,.01,.12,.03,.17,0,.02,.03,.04,.05,.07l.04-.02Zm-5.33-10.03s-.02,.02-.02,.03c-.06,.15-.11,.29-.16,.44-.24,.76-.39,1.54-.49,2.33-.08,.6-.13,1.2-.1,1.8,0,.1,.03,.2,.04,.3h.02l.26-1.58h.04l.03,.47h.02l.05-.25h.03l.03,.45c.04-.14,.05-.28,.08-.42,.05-.27,.11-.54,.17-.81,.01-.07,.05-.09,.13-.05l-.05,1.07c.57-1.04,.51-2.92-.07-3.77Zm1.5-.15l-.04,.57-.21-.14v.38c0,.66,0,1.31,0,1.97,0,.05,0,.11,.07,.12l.21-.26s.02,.06,.02,.08c.06,.28,.13,.56,.19,.84,0,.03,.04,.05,.06,.08,.02-.02,.05-.05,.05-.07,0-.16,0-.33,0-.49-.03-.31-.1-.61,0-.92,.02-.06,.01-.14,0-.21-.03-.24-.06-.48-.09-.72-.02-.16-.04-.32-.06-.49,.05,.04,.08,.08,.12,.11,.01,.01,.04,.01,.06,.02,0-.02,.02-.04,.01-.06-.09-.27-.18-.54-.27-.81l-.12,.02Zm-1.93,6.64s0,.03,0,.04c-.01,.91-.03,1.82-.03,2.74,0,.6,.07,1.2,.18,1.79,0,.04,0,.1,.07,.08,.02,0,.05-.06,.05-.09-.02-.7-.04-1.39-.06-2.09-.02-.8-.04-1.59-.07-2.39,0-.03,0-.05-.01-.08h-.12Z"/><path class="cls-1" d="M22.59,15.34l.14-.03c.02,.19,.04,.37,.06,.56,.04,.4,.08,.79,.12,1.19,0,.06,.03,.08,.09,.05l-.28-3.82h-.02l-.13,.35h-.04c-.03-.27-.07-.55-.08-.82-.03-.69,.12-1.36,.3-2.03,.12-.42,.24-.85,.39-1.26,.13-.38,.38-.68,.71-.91,.27-.19,.58-.2,.89-.11,.51,.14,1.02,.29,1.53,.44,.44,.13,.77,.41,.97,.83,.18,.37,.35,.75,.53,1.13,.04,.08-.03,.17-.12,.15-.22-.03-.44-.07-.66-.11-.14-.02-.27-.02-.41-.05-.48-.11-.8-.4-.95-.87-.03-.09-.09-.18-.15-.26-.05-.07-.11-.05-.14,.02-.24,.57-.47,1.15-.55,1.76-.06,.44-.12,.87-.14,1.31-.04,.67-.07,1.34-.06,2.01,0,.66,.06,1.31,.11,1.97,.07,.91,.22,1.8,.42,2.69,.1,.42,.25,.83,.38,1.25,.02,.07,.04,.13,.07,.21,.24-.22,.44-.47,.61-.73,.29-.45,.5-.95,.7-1.45,.07-.18,.14-.35,.22-.55l.06,.26h.01s.02-.08,.03-.12c.08-.26,.26-.4,.54-.42,.24-.02,.48-.03,.71-.05,.22-.02,.29,.07,.26,.28-.14,.82-.37,1.6-.81,2.32-.24,.39-.53,.72-.87,1.02-.34,.3-.74,.45-1.18,.51-.3,.05-.6,.06-.91,.08-.16,.01-.32,.04-.48,.03-.35-.02-.61-.21-.81-.49-.37-.54-.6-1.14-.7-1.78-.09-.57-.15-1.15-.2-1.72-.07-.74-.11-1.47-.11-2.21,0-.21-.05-.41-.08-.63Zm.63,.72h0v1.82h.1l-.09-1.82Z"/><path class="cls-1" d="M8.48,28.41c-.05,.18-.11,.35-.16,.53-.26,.87-.51,1.73-.76,2.6-.06,.2-.14,.27-.35,.26-.13,0-.25,0-.38-.01-.15,0-.25-.09-.29-.24-.07-.23-.13-.46-.2-.69-.23-.8-.46-1.61-.69-2.41,0-.02-.01-.04-.04-.07,0,.07,0,.14,0,.2,0,.61,0,1.23,0,1.84,0,.35,0,.69,.01,1.04,0,.24-.08,.32-.32,.32-.29,0-.58,0-.88,0v-6.35s.05,0,.07,0c.39,0,.77,0,1.16,.02,.07,0,.15,.05,.19,.1,.06,.07,.11,.16,.14,.26,.34,1.13,.68,2.27,1.02,3.4,.01,.03,.02,.07,.04,.12,.08-.24,.16-.45,.23-.66,.32-.99,.65-1.99,.97-2.98,.07-.2,.14-.26,.36-.26,.3,0,.61,0,.91,0,.19,0,.25,.05,.27,.23,0,.04,0,.07,0,.11,0,1.58,0,3.17,0,4.75,0,.33,0,.65,0,.98,0,.04,0,.09-.01,.13-.02,.11-.08,.16-.19,.16-.27,0-.55,0-.82,0-.12,0-.2-.07-.2-.19,0-.12,0-.24,0-.36,0-.89,0-1.79,0-2.68,0-.05,0-.11-.01-.16h-.04Zm-1.47,2.34s-.02-.06-.03-.08c-.36-1.08-.71-2.15-1.07-3.23-.14-.42-.27-.83-.41-1.25-.06-.17-.17-.24-.35-.22-.16,.01-.24,.09-.27,.27,0,.04,0,.08,0,.12,0,.5,0,.99,0,1.49,0,1.04,0,2.09,0,3.13,0,.08,.01,.15,.02,.23,.11,.01,.08-.06,.08-.11,0-1.61,0-3.22,0-4.83v-.12c.26-.08,.38-.02,.46,.23,.42,1.27,.84,2.54,1.26,3.82,.09,.27,.18,.53,.27,.8h.03c.05-.08,.12-.17,.15-.26,.23-.66,.45-1.32,.67-1.98,.26-.78,.52-1.57,.79-2.35,.02-.07,.06-.14,.1-.2,.07-.09,.18-.1,.32-.05,.1,.03,.06,.11,.06,.17,0,1.59,0,3.18,0,4.77v.12c.09-.05,.1-.12,.1-.2,0-1.59,0-3.17,0-4.76,0-.21-.06-.27-.27-.27-.04,0-.08,0-.12,0-.18,.03-.23,.16-.28,.31-.45,1.34-.89,2.68-1.34,4.02-.05,.14-.11,.28-.17,.45Z"/><path class="cls-1" d="M18.62,31.79c-.38,0-.74,0-1.11,0-.11,0-.15-.11-.19-.19-.09-.18-.16-.36-.24-.53-.34-.75-.67-1.51-1.01-2.26-.01-.03-.03-.05-.05-.1,0,.14-.02,.26-.02,.37,0,.7,0,1.4,0,2.1,0,.14,0,.28,0,.42,0,.13-.07,.2-.19,.21-.25,0-.5,0-.74-.01-.19-.02-.27-.12-.3-.31-.01-.1-.02-.2-.02-.3,0-1.87,0-3.74,0-5.61v-.11c.1,0,.19,0,.29,0,.25,0,.5,.01,.76,0,.13,0,.21,.06,.26,.16,.1,.19,.18,.39,.27,.59,.3,.68,.6,1.37,.9,2.05,.02,.04,.06,.07,.09,.1,0-.04,.03-.09,.03-.13,0-.77,0-1.54,0-2.31,0-.09,0-.18,0-.26,.01-.14,.09-.21,.22-.21,.25,0,.5,0,.75,0,.23,0,.35,.12,.34,.35,0,1.98-.01,3.96-.02,5.95,0,.02,0,.03,0,.05Zm-.7-.54c.1,0,.09-.05,.09-.11,0-1.68,0-3.35,0-5.03,0,0,0-.02,0-.03q0-.07-.09-.05v4.78c-.07,.04-.09,0-.11-.05-.21-.42-.42-.83-.63-1.25-.57-1.13-1.14-2.26-1.71-3.39-.01-.03-.03-.05-.04-.07-.09,0-.07,.07-.07,.12,0,1.64,0,3.29,0,4.93,0,.02,0,.05,0,.07,0,.02,.03,.03,.07,.06v-4.77c.91,1.56,1.67,3.2,2.49,4.8Z"/><path class="cls-1" d="M21.83,27.72c0,.63,0,1.26,0,1.89,0,.12,.01,.24,.04,.35,.08,.34,.29,.55,.63,.6,.18,.02,.37,.02,.55-.02,.33-.07,.49-.32,.54-.63,.03-.2,.04-.4,.04-.6,0-1.17,0-2.34,0-3.5,0-.04,0-.08,0-.12,.02-.18,.09-.24,.27-.24,.25,0,.51,0,.76,0,.16,0,.23,.05,.24,.22,.01,.09,0,.18,0,.27,0,.62,0,1.24,0,1.85,0,.76,0,1.52-.01,2.29,0,.49-.14,.94-.5,1.29-.28,.28-.63,.42-1.01,.47-.44,.06-.88,.08-1.32,0-.3-.05-.59-.16-.84-.34-.44-.3-.65-.72-.66-1.24-.02-.76-.03-1.52-.04-2.28,0-.76-.01-1.52-.02-2.28,0-.2,.08-.27,.27-.27,.26,0,.52,0,.77,0,.18,0,.26,.07,.26,.26,0,.54,0,1.08,0,1.62,0,.13,0,.26,0,.39h0Zm2.51-1.66c-.1-.01-.08,.05-.08,.1,0,1.22,0,2.43,0,3.65,0,.83-.6,1.39-1.43,1.32-.29-.02-.57-.08-.86-.11-.1-.01-.17-.05-.24-.12-.24-.23-.38-.51-.44-.83-.07-.36-.04-.72-.04-1.09,0-.89,0-1.79,0-2.68,0-.07,0-.14-.02-.23-.08,.11-.1,.21-.1,.32,0,.98,0,1.96,0,2.94,0,.18,0,.37,.02,.55,.03,.28,.09,.54,.23,.78,.13,.21,.34,.33,.54,.44,1.11,.62,2.45-.11,2.46-1.43,0-.59,0-1.18,0-1.77,0-.55,0-1.09,0-1.64,0-.08-.02-.15-.03-.23Z"/><path class="cls-1" d="M36.51,29.19c.05,.55,.06,1.08-.12,1.61-.16,.48-.49,.79-.96,.94-.75,.23-1.51,.24-2.25-.04-.63-.24-.98-.75-1-1.42-.01-.8-.03-1.61-.03-2.41,0-.38,0-.75,.05-1.12,.07-.6,.42-.99,.99-1.18,.7-.23,1.42-.28,2.14-.05,.61,.19,.96,.61,1.15,1.2,.08,.24,.1,.48,.06,.73-.02,.14-.09,.22-.24,.23-.29,.01-.59,.01-.88,.01-.1,0-.16-.07-.18-.19-.01-.08-.02-.16-.04-.23-.06-.29-.24-.47-.53-.54-.24-.06-.47-.06-.71,0-.3,.09-.49,.31-.5,.62-.01,.5-.02,.99-.02,1.49,0,.36,.03,.72,.03,1.09,.01,.38,.25,.61,.59,.65,.18,.02,.37,.02,.55-.01,.33-.07,.55-.34,.59-.69,.02-.12,.03-.25,.04-.37,.02-.22,.07-.29,.29-.3,.32-.01,.63,0,.96,0Zm-.68-2.2c0-.32-.11-.56-.37-.7-.22-.12-.46-.22-.7-.28-.4-.1-.8-.03-1.19,.07-.43,.11-.71,.39-.79,.83-.05,.31-.07,.62-.08,.94,0,.8-.03,1.61,.06,2.41,.04,.39,.22,.74,.68,.84,.02,0,.04,.02,.06,.02,.62,.26,1.23,.22,1.83-.07,.43-.22,.67-.81,.51-1.28,0,.06-.02,.11-.02,.15-.03,.25-.07,.49-.2,.71-.2,.32-.5,.46-.86,.47-.41,0-.83-.01-1.24-.02-.02,0-.04,0-.06-.01-.36-.23-.63-.54-.64-.99-.01-.94-.01-1.89,0-2.84,0-.66,.47-1.12,1.13-1.12,.38,0,.75,.04,1.13,.06,.05,0,.11,.04,.14,.08,.2,.23,.39,.46,.6,.72Z"/><path class="cls-1" d="M27.53,29.73c.12,.17,.22,.35,.35,.51,.24,.3,.57,.4,.94,.31,.24-.06,.37-.22,.42-.46,.04-.24-.04-.44-.25-.56-.35-.2-.71-.37-1.06-.57-.28-.16-.57-.31-.82-.5-.46-.35-.69-.83-.66-1.41,.03-.43,.21-.81,.54-1.09,.65-.55,1.4-.74,2.23-.49,.56,.17,.92,.56,1.17,1.08,.06,.13,.04,.23-.08,.31-.25,.17-.51,.34-.79,.52-.04-.05-.09-.12-.15-.18-.17-.17-.33-.36-.57-.43-.22-.06-.44-.08-.66-.05-.22,.03-.35,.27-.27,.47,.05,.13,.13,.23,.25,.29,.3,.15,.59,.29,.89,.43,.32,.15,.64,.31,.92,.54,.75,.61,.95,1.56,.48,2.41-.29,.53-.72,.89-1.33,.98-.65,.1-1.28,.04-1.84-.35-.26-.18-.46-.41-.61-.69-.08-.16-.07-.29,.07-.41,.27-.23,.56-.45,.83-.67Zm.42,1.38h0s.07,.05,.1,.07c.22,.1,.46,.14,.71,.13,1.04-.07,1.38-1.02,1.23-1.64-.08-.32-.29-.56-.54-.76-.33-.26-.72-.41-1.11-.55-.01,0-.03,0-.05,0v.02s.05,.04,.08,.06c.33,.19,.67,.38,.99,.58,.2,.12,.36,.29,.46,.51,.36,.81-.33,1.75-1.21,1.67-.21-.02-.43-.05-.64-.08Zm-.15-3v-.02s-.09-.06-.13-.09c-.22-.16-.41-.35-.47-.63-.12-.53,.27-1.12,.84-1.24,.13-.03,.26-.04,.39-.04,.21,0,.41,.01,.62,.02,0,0-.01-.01-.02-.01,0,0-.02,0-.03-.01-.52-.19-1.02-.15-1.48,.17-.49,.34-.6,.99-.26,1.48,.13,.19,.3,.32,.53,.38Z"/><path class="cls-1" d="M11.54,28.6c0-.97,0-1.94,0-2.91,0-.03,0-.06,0-.09,0-.13,.03-.15,.16-.15,.28,0,.56,0,.84,0,.21,0,.26,.05,.26,.26,0,.75,0,1.5,0,2.25,0,1.18,0,2.36,0,3.54,0,.04,0,.09,0,.13-.01,.12-.07,.18-.19,.18-.29,0-.59,0-.88,0-.12,0-.18-.06-.19-.18,0-.04,0-.08,0-.12,0-.97,0-1.94,0-2.9h0Zm.64-2.58c-.05,.1-.05,5.12,0,5.18v-5.18Z"/><path class="cls-1" d="M20.36,21.23c-.12-.02-.28-.03-.43-.06-.22-.05-.36-.2-.39-.42-.05-.41,.05-.79,.37-1.08,.25-.23,.55-.32,.88-.19,.32,.13,.48,.39,.51,.72,.01,.16,0,.33-.02,.49-.05,.32-.21,.47-.53,.52-.11,.02-.23,.02-.38,.03Z"/><path class="cls-1" d="M30.55,21.23c-.12-.02-.28-.03-.43-.07-.24-.05-.38-.22-.4-.46-.04-.45,.09-.84,.46-1.1,.64-.46,1.23,.01,1.31,.54,.03,.19,.01,.39-.03,.57-.05,.28-.26,.45-.57,.49-.1,.01-.2,.02-.34,.03Z"/><path d="M10.78,9.85c.58,.86,.64,2.73,.07,3.77l.05-1.07c-.07-.04-.11-.02-.13,.05-.06,.27-.12,.54-.17,.81-.03,.14-.04,.28-.08,.42l-.03-.45h-.03l-.05,.24h-.02l-.03-.46h-.04l-.26,1.58h-.02c-.01-.1-.03-.2-.04-.3-.04-.6,.02-1.2,.1-1.8,.1-.79,.25-1.57,.49-2.33,.05-.15,.11-.29,.16-.44,0-.01,.01-.02,.02-.03Z"/><path d="M12.27,9.7l.12-.02c.09,.27,.18,.54,.27,.81,0,.02,0,.04-.01,.06-.02,0-.04,0-.06-.02-.04-.03-.07-.07-.12-.11,.02,.17,.04,.33,.06,.49,.03,.24,.06,.48,.09,.72,0,.07,.02,.15,0,.21-.1,.31-.03,.61,0,.92,.01,.16,.01,.32,0,.49,0,.02-.04,.05-.05,.07-.02-.03-.06-.05-.06-.08-.07-.28-.13-.56-.19-.84,0-.02-.01-.04-.02-.08l-.21,.26c-.08-.01-.07-.07-.07-.12,0-.66,0-1.31,0-1.97v-.38l.21,.14,.04-.57Z"/><path d="M10.35,16.34h.12s.01,.05,.01,.08c.02,.8,.04,1.59,.07,2.39,.02,.7,.04,1.39,.06,2.09,0,.03-.02,.08-.05,.09-.06,.02-.06-.04-.07-.08-.11-.59-.18-1.19-.18-1.79,0-.91,.02-1.82,.03-2.74,0,0,0-.02,0-.04Z"/><path d="M23.22,16.06l.09,1.81h-.1v-1.81h0Z"/><path d="M7.02,30.76c.06-.16,.12-.3,.17-.45,.45-1.34,.89-2.68,1.34-4.02,.05-.14,.1-.28,.28-.31,.04,0,.08,0,.12,0,.21,0,.27,.06,.27,.27,0,1.59,0,3.17,0,4.76,0,.07,0,.14-.1,.2v-.12c0-1.59,0-3.18,0-4.77,0-.06,.04-.14-.06-.17-.14-.05-.25-.04-.32,.05-.04,.06-.08,.13-.1,.2-.26,.78-.52,1.57-.79,2.35-.22,.66-.44,1.32-.67,1.98-.03,.1-.1,.18-.15,.27h-.03c-.09-.28-.18-.54-.27-.81-.42-1.27-.84-2.54-1.26-3.82-.08-.25-.2-.31-.46-.23v.12c0,1.61,0,3.22,0,4.83,0,.05,.03,.12-.08,.11,0-.07-.02-.15-.02-.23,0-1.04,0-2.09,0-3.13,0-.5,0-.99,0-1.49,0-.04,0-.08,0-.12,.04-.18,.11-.25,.27-.27,.18-.01,.29,.05,.35,.22,.14,.42,.27,.83,.41,1.25,.36,1.08,.71,2.15,1.07,3.23,0,.02,.01,.04,.03,.08Z"/><path d="M17.92,31.25c-.82-1.6-1.58-3.24-2.49-4.8v4.77s-.06-.04-.07-.06c0-.02,0-.04,0-.07,0-1.64,0-3.29,0-4.93,0-.05-.01-.11,.07-.12,.01,.02,.03,.05,.04,.07,.57,1.13,1.14,2.26,1.71,3.39,.21,.42,.42,.83,.63,1.25,.02,.05,.04,.09,.11,.05v-4.78q.09-.02,.09,.05s0,.02,0,.03c0,1.68,0,3.35,0,5.03,0,.06,0,.12-.09,.11Z"/><path d="M24.34,26.07c0,.07,.03,.15,.03,.23,0,.55,0,1.09,0,1.64,0,.59,0,1.18,0,1.77,0,1.32-1.34,2.04-2.46,1.43-.2-.11-.41-.23-.54-.44-.14-.24-.21-.51-.23-.78-.02-.18-.02-.37-.02-.55,0-.98,0-1.96,0-2.94,0-.11,.02-.21,.1-.32,0,.09,.02,.16,.02,.23,0,.89,0,1.79,0,2.68,0,.36-.03,.73,.04,1.09,.07,.32,.21,.6,.44,.83,.07,.07,.14,.11,.24,.12,.29,.03,.57,.09,.86,.11,.83,.07,1.43-.49,1.43-1.32,0-1.22,0-2.43,0-3.65,0-.05-.02-.11,.08-.1Z"/><path d="M35.84,26.98c-.21-.25-.41-.49-.6-.72-.03-.04-.09-.07-.14-.08-.37-.03-.75-.06-1.13-.06-.66,0-1.12,.45-1.13,1.12-.01,.95-.01,1.89,0,2.84,0,.45,.28,.75,.64,.99,.02,0,.04,.01,.06,.01,.41,0,.83,.03,1.24,.02,.36,0,.66-.14,.86-.47,.13-.22,.17-.46,.2-.71,0-.05,.01-.1,.02-.15,.16,.47-.08,1.06-.51,1.28-.6,.3-1.21,.34-1.83,.07-.02,0-.04-.02-.06-.02-.46-.1-.64-.46-.68-.84-.09-.8-.06-1.61-.06-2.41,0-.31,.03-.63,.08-.94,.07-.44,.35-.72,.79-.83,.39-.1,.79-.17,1.19-.07,.24,.06,.48,.16,.7,.28,.26,.14,.37,.37,.37,.7Z"/><path d="M27.95,31.11c.21,.03,.43,.06,.64,.08,.89,.08,1.57-.86,1.21-1.67-.1-.22-.26-.39-.46-.51-.33-.2-.66-.38-.99-.58-.03-.02-.06-.04-.09-.06v-.02s.04,0,.06,0c.39,.14,.78,.29,1.11,.55,.25,.2,.46,.44,.54,.76,.16,.63-.18,1.57-1.23,1.64-.25,.02-.48-.02-.71-.13-.03-.02-.07-.04-.1-.05h0Z"/><path d="M27.8,28.1c-.23-.06-.4-.19-.53-.38-.34-.48-.23-1.14,.26-1.48,.46-.32,.96-.36,1.48-.17,0,0,.02,0,.03,.01,0,0,0,0,.02,.01-.21,0-.42-.02-.62-.02-.13,0-.26,.01-.39,.04-.56,.12-.96,.71-.84,1.24,.06,.28,.25,.47,.47,.63,.04,.03,.08,.06,.13,.09v.02Z"/><path d="M12.18,26.02v5.18c-.05-.06-.05-5.08,0-5.18Z"/></svg>